<?xml version="1.0" encoding="utf-8"?>
<!DOCTYPE svg PUBLIC "-//W3C//DTD SVG 20010904//EN" "http://www.w3.org/TR/2001/REC-SVG-20010904/DTD/svg10.dtd">
<svg version="1.0" xmlns="http://www.w3.org/2000/svg" width="462pt" height="462pt" viewBox="0 0 462 462" style="" preserveAspectRatio="xMidYMid meet">
<g fill="#306EDB" stroke="#306EDB">
<path d="M 162.000 76.054 C 162.000 92.077 162.306 91.691 153.221 87.123 C 139.127 80.036 110.301 70.240 95.750 67.592 L 92.000 66.909 92.000 116.076 C 92.000 155.504 92.310 167.328 93.563 175.769 C 98.124 206.485 113.076 232.535 135.209 248.330 C 142.133 253.270 157.543 260.960 164.750 263.072 C 167.088 263.756 169.000 264.615 169.000 264.980 C 169.000 266.162 147.786 275.808 137.228 279.427 C 118.429 285.871 107.463 287.487 82.750 287.457 C 57.880 287.427 60.171 286.298 62.016 297.668 C 66.980 328.255 86.139 361.542 110.622 382.121 C 119.286 389.403 132.464 398.193 141.605 402.788 C 147.494 405.747 162.049 411.305 162.532 410.778 C 162.673 410.625 164.933 405.100 167.554 398.500 C 173.006 384.772 192.144 341.922 194.219 338.797 C 195.558 336.781 196.453 336.708 222.051 336.546 C 251.082 336.363 258.282 335.465 275.866 329.832 C 296.627 323.182 314.416 312.581 327.029 299.344 C 348.398 276.918 355.974 253.605 356.015 210.144 C 356.040 183.343 360.550 171.997 374.181 164.446 C 378.983 161.786 380.390 161.500 388.654 161.500 L 397.809 161.500 398.420 156.889 C 399.140 151.461 397.697 140.150 395.413 133.328 C 390.366 118.249 378.458 104.983 364.661 99.069 C 356.055 95.380 345.366 93.673 335.071 94.342 C 322.941 95.131 316.749 96.816 305.493 102.387 C 297.162 106.511 283.199 117.070 279.839 121.787 C 279.103 122.821 277.309 125.072 275.853 126.788 L 273.206 129.909 262.321 119.184 C 236.339 93.583 203.566 74.452 167.190 63.649 L 162.000 62.108 162.000 76.054 M 148.467 100.497 L 160.500 106.561 161.000 139.977 L 161.500 173.394 168.250 159.304 L 175.000 145.214 175.000 131.107 C 175.000 123.028 175.399 117.000 175.934 117.000 C 177.711 117.000 192.529 129.333 200.500 137.446 C 209.333 146.435 219.226 159.880 225.751 171.760 C 231.328 181.917 239.443 202.751 242.475 214.698 C 243.805 219.939 245.071 224.404 245.288 224.622 C 245.506 224.839 247.397 219.951 249.491 213.759 C 269.323 155.111 287.751 126.381 313.500 113.968 C 335.934 103.153 361.646 107.629 374.952 124.667 C 379.145 130.035 384.000 141.157 384.000 145.394 C 384.000 147.449 383.391 147.823 379.124 148.389 C 367.247 149.965 354.684 159.768 348.540 172.253 C 343.393 182.712 342.038 190.618 342.017 210.289 C 341.976 249.890 336.140 269.032 318.343 287.937 C 306.678 300.330 294.289 308.257 276.114 314.958 C 259.323 321.149 233.921 324.577 213.866 323.359 C 203.762 322.746 203.006 322.558 203.563 320.801 C 203.894 319.758 210.614 305.763 218.496 289.702 L 232.828 260.500 216.664 271.609 C 186.010 292.678 156.130 309.943 150.253 309.984 C 147.818 310.001 129.775 302.357 125.984 299.701 C 124.275 298.505 124.034 297.960 125.077 297.660 C 145.634 291.732 169.508 281.404 186.436 271.114 C 192.706 267.303 195.012 266.579 210.436 263.583 L 227.500 260.268 221.500 259.537 C 207.682 257.853 180.869 252.906 172.500 250.497 C 139.188 240.909 118.754 219.456 109.209 184.051 C 106.673 174.646 106.625 173.817 106.067 129.665 C 105.755 105.006 105.651 84.680 105.835 84.497 C 106.808 83.529 138.098 95.272 148.467 100.497 M 161.500 328.990 C 167.550 330.658 174.360 332.470 176.632 333.018 L 180.764 334.014 171.301 354.757 C 166.096 366.166 160.252 379.438 158.314 384.250 C 156.376 389.063 154.601 393.000 154.370 393.000 C 154.139 393.000 150.699 391.363 146.725 389.362 C 137.237 384.584 127.034 377.641 118.020 369.828 C 109.972 362.852 95.567 345.988 96.750 344.927 C 97.163 344.558 100.875 343.458 105.000 342.482 C 114.966 340.126 130.355 334.756 140.924 329.948 C 145.641 327.802 149.725 326.027 150.000 326.003 C 150.275 325.979 155.450 327.323 161.500 328.990 M 198.876 91.224 C 214.596 99.003 231.928 110.472 243.692 120.879 C 252.516 128.686 264.000 141.179 264.000 142.973 C 264.000 143.445 261.512 148.764 258.471 154.793 C 255.431 160.823 251.456 169.440 249.639 173.944 L 246.336 182.133 241.825 172.802 C 227.777 143.745 206.614 119.389 181.377 103.234 C 176.538 100.136 176.242 99.698 175.646 94.734 C 174.844 88.061 174.829 82.505 175.609 81.724 C 176.483 80.850 184.651 84.185 198.876 91.224 M 106.600 303.777 C 111.155 307.021 122.760 313.932 128.500 316.819 L 132.500 318.831 129.500 320.022 C 118.268 324.481 92.806 331.990 88.889 331.999 C 87.794 332.001 81.122 316.414 79.109 309.152 L 77.146 302.068 87.323 301.745 C 92.920 301.567 98.670 301.327 100.100 301.211 C 101.613 301.088 104.331 302.161 106.600 303.777 M 192.784 311.250 C 189.471 318.290 188.243 320.000 186.500 320.000 C 183.479 320.000 172.655 317.854 171.770 317.079 C 171.050 316.449 194.843 302.127 196.201 302.373 C 196.587 302.443 195.049 306.438 192.784 311.250 "/></g>
<g fill="#306EDB" stroke="#306EDB">
<path d="M 342.415 122.374 C 335.420 125.528 332.997 133.203 336.950 139.686 C 339.384 143.677 342.020 145.112 347.048 145.181 C 354.457 145.283 359.694 139.208 358.684 131.681 C 357.641 123.908 349.431 119.211 342.415 122.374 "/></g>
</svg>
